<svg width="17" height="23" viewBox="0 0 17 23" fill="none" xmlns="http://www.w3.org/2000/svg">
<path d="M8.9693 22.9172L8.36035 22.1582C6.87907 20.3351 0.900685 12.1057 0.900685 8.11287C0.809839 6.05474 1.53446 4.04455 2.91515 2.52454C4.29584 1.00452 6.21949 0.099173 8.26292 0.00767293C8.48823 -0.00254929 8.71405 -0.00254929 8.94038 0.00767293C10.9838 -0.0838263 12.9796 0.646012 14.4888 2.03663C15.998 3.42725 16.8968 5.36474 16.9877 7.42287C16.9978 7.65287 16.9978 7.88287 16.9877 8.11287C16.9877 11.5061 12.9244 17.4831 9.86599 21.6844L8.9693 22.9172ZM8.94038 1.51954C8.06782 1.47 7.19472 1.60661 6.3782 1.92043C5.56169 2.23425 4.82019 2.71821 4.20222 3.34062C3.58425 3.96304 3.10375 4.70988 2.79217 5.53227C2.48059 6.35465 2.34495 7.23404 2.39414 8.11287C2.39414 10.9219 6.59439 17.3711 8.91907 20.4317C10.822 17.8097 15.4881 11.2485 15.4881 8.11287C15.5373 7.23404 15.4017 6.35465 15.0901 5.53227C14.7785 4.70988 14.298 3.96304 13.6801 3.34062C13.0621 2.71821 12.3206 2.23425 11.5041 1.92043C10.6876 1.60661 9.81446 1.47 8.9419 1.51954H8.94038Z" fill="#393939"/>
<ellipse cx="8.96927" cy="6.50769" rx="1.48929" ry="1.5" fill="#393939"/>
</svg>
